<svg xmlns="http://www.w3.org/2000/svg" xmlns:xlink="http://www.w3.org/1999/xlink" contentStyleType="text/css" data-diagram-type="CLASS" height="467px" preserveAspectRatio="none" style="width:424px;height:467px;background:#1B1B1B;" version="1.1" viewBox="0 0 424 467" width="424px" zoomAndPan="magnify"><defs/><g><rect fill="#1B1B1B" height="467" style="stroke:none;stroke-width:1;" width="424" x="0" y="0"/><!--class Vector--><g class="entity" data-entity="Vector" data-source-line="2" data-uid="ent0002" id="entity_Vector"><rect fill="#313139" height="48" rx="2.5" ry="2.5" style="stroke:#E7E7E7;stroke-width:0.5;" width="77.6982" x="66.57" y="412.05"/><ellipse cx="81.57" cy="428.05" fill="#2E5233" rx="11" ry="11" style="stroke:#E7E7E7;stroke-width:1;"/><path d="M84.5388,433.6906 Q83.9606,433.9875 83.32,434.1281 Q82.6794,434.2844 81.9763,434.2844 Q79.4763,434.2844 78.1481,432.6438 Q76.8356,430.9875 76.8356,427.8625 Q76.8356,424.7375 78.1481,423.0813 Q79.4763,421.425 81.9763,421.425 Q82.6794,421.425 83.32,421.5813 Q83.9763,421.7375 84.5388,422.0344 L84.5388,424.7531 Q83.9138,424.175 83.32,423.9094 Q82.7263,423.6281 82.1013,423.6281 Q80.7575,423.6281 80.07,424.7063 Q79.3825,425.7688 79.3825,427.8625 Q79.3825,429.9563 80.07,431.0344 Q80.7575,432.0969 82.1013,432.0969 Q82.7263,432.0969 83.32,431.8313 Q83.9138,431.55 84.5388,430.9719 L84.5388,433.6906 Z " fill="#FFFFFF"/><text fill="#FFFFFF" font-family="sans-serif" font-size="14" lengthAdjust="spacing" textLength="45.6982" x="95.57" y="432.8967">Vector</text><line style="stroke:#E7E7E7;stroke-width:0.5;" x1="67.57" x2="143.2682" y1="444.05" y2="444.05"/><line style="stroke:#E7E7E7;stroke-width:0.5;" x1="67.57" x2="143.2682" y1="452.05" y2="452.05"/></g><!--class Comparador--><g class="entity" data-entity="Comparador" data-source-line="3" data-uid="ent0003" id="entity_Comparador"><rect fill="#313139" height="48" rx="2.5" ry="2.5" style="stroke:#E7E7E7;stroke-width:0.5;" width="118.9873" x="178.93" y="412.05"/><ellipse cx="193.93" cy="428.05" fill="#2E5233" rx="11" ry="11" style="stroke:#E7E7E7;stroke-width:1;"/><path d="M196.8988,433.6906 Q196.3206,433.9875 195.68,434.1281 Q195.0394,434.2844 194.3363,434.2844 Q191.8363,434.2844 190.5081,432.6438 Q189.1956,430.9875 189.1956,427.8625 Q189.1956,424.7375 190.5081,423.0813 Q191.8363,421.425 194.3363,421.425 Q195.0394,421.425 195.68,421.5813 Q196.3363,421.7375 196.8988,422.0344 L196.8988,424.7531 Q196.2738,424.175 195.68,423.9094 Q195.0863,423.6281 194.4613,423.6281 Q193.1175,423.6281 192.43,424.7063 Q191.7425,425.7688 191.7425,427.8625 Q191.7425,429.9563 192.43,431.0344 Q193.1175,432.0969 194.4613,432.0969 Q195.0863,432.0969 195.68,431.8313 Q196.2738,431.55 196.8988,430.9719 L196.8988,433.6906 Z " fill="#FFFFFF"/><text fill="#FFFFFF" font-family="sans-serif" font-size="14" lengthAdjust="spacing" textLength="86.9873" x="207.93" y="432.8967">Comparador</text><line style="stroke:#E7E7E7;stroke-width:0.5;" x1="179.93" x2="296.9173" y1="444.05" y2="444.05"/><line style="stroke:#E7E7E7;stroke-width:0.5;" x1="179.93" x2="296.9173" y1="452.05" y2="452.05"/></g><!--class ColaPrioridad--><g class="entity" data-entity="ColaPrioridad" data-source-line="6" data-uid="ent0004" id="entity_ColaPrioridad"><rect fill="#313139" height="325.0469" rx="2.5" ry="2.5" style="stroke:#E7E7E7;stroke-width:0.5;" width="328.8457" x="7" y="10"/><ellipse cx="114.7773" cy="26" fill="#2E5233" rx="11" ry="11" style="stroke:#E7E7E7;stroke-width:1;"/><path d="M117.7461,31.6406 Q117.168,31.9375 116.5273,32.0781 Q115.8867,32.2344 115.1836,32.2344 Q112.6836,32.2344 111.3555,30.5938 Q110.043,28.9375 110.043,25.8125 Q110.043,22.6875 111.3555,21.0313 Q112.6836,19.375 115.1836,19.375 Q115.8867,19.375 116.5273,19.5313 Q117.1836,19.6875 117.7461,19.9844 L117.7461,22.7031 Q117.1211,22.125 116.5273,21.8594 Q115.9336,21.5781 115.3086,21.5781 Q113.9648,21.5781 113.2773,22.6563 Q112.5898,23.7188 112.5898,25.8125 Q112.5898,27.9063 113.2773,28.9844 Q113.9648,30.0469 115.3086,30.0469 Q115.9336,30.0469 116.5273,29.7813 Q117.1211,29.5 117.7461,28.9219 L117.7461,31.6406 Z " fill="#FFFFFF"/><text fill="#FFFFFF" font-family="sans-serif" font-size="14" lengthAdjust="spacing" textLength="93.4609" x="135.2773" y="30.8467">ColaPrioridad</text><rect fill="#FFFFFF" height="15.9688" style="stroke:#E7E7E7;stroke-width:1;stroke-dasharray:2,2;" width="9.3301" x="329.5156" y="7"/><text fill="#000000" font-family="sans-serif" font-size="12" font-style="italic" lengthAdjust="spacing" textLength="7.3301" x="330.5156" y="19.1387">T</text><line style="stroke:#E7E7E7;stroke-width:0.5;" x1="8" x2="334.8457" y1="42" y2="42"/><g data-visibility-modifier="PRIVATE_FIELD"><rect fill="none" height="6" style="stroke:#C82930;stroke-width:1;" width="6" x="15" y="52.6484"/></g><text fill="#FFFFFF" font-family="sans-serif" font-size="14" lengthAdjust="spacing" textLength="88.9629" x="27" y="58.9951">Vector datos</text><g data-visibility-modifier="PRIVATE_FIELD"><rect fill="none" height="6" style="stroke:#C82930;stroke-width:1;" width="6" x="15" y="68.9453"/></g><text fill="#FFFFFF" font-family="sans-serif" font-size="14" lengthAdjust="spacing" textLength="176.3467" x="27" y="75.292">Comparador comparador</text><text fill="#FFFFFF" font-family="sans-serif" font-size="14" lengthAdjust="spacing" textLength="4.4502" x="27" y="91.5889">&#160;</text><g data-visibility-modifier="PUBLIC_METHOD"><ellipse cx="18" cy="104.5391" fill="#84BE84" rx="3" ry="3" style="stroke:#038048;stroke-width:1;"/></g><text fill="#FFFFFF" font-family="sans-serif" font-size="14" lengthAdjust="spacing" textLength="289.8984" x="27" y="107.8857">ColaPrioridad(comparador : Comparador)</text><g data-visibility-modifier="PUBLIC_METHOD"><ellipse cx="18" cy="120.8359" fill="#84BE84" rx="3" ry="3" style="stroke:#038048;stroke-width:1;"/></g><text fill="#FFFFFF" font-family="sans-serif" font-size="14" lengthAdjust="spacing" textLength="302.8457" x="27" y="124.1826">ColaPrioridad(colaPrioridad : ColaPrioridad)</text><text fill="#FFFFFF" font-family="sans-serif" font-size="14" lengthAdjust="spacing" textLength="4.4502" x="27" y="140.4795">&#160;</text><g data-visibility-modifier="PRIVATE_METHOD"><rect fill="#F24D5C" height="6" style="stroke:#C82930;stroke-width:1;" width="6" x="15" y="170.7266"/></g><text fill="#FFFFFF" font-family="sans-serif" font-size="14" lengthAdjust="spacing" textLength="196.4102" x="27" y="177.0732">void heapificarHaciaArriba()</text><g data-visibility-modifier="PRIVATE_METHOD"><rect fill="#F24D5C" height="6" style="stroke:#C82930;stroke-width:1;" width="6" x="15" y="187.0234"/></g><text fill="#FFFFFF" font-family="sans-serif" font-size="14" lengthAdjust="spacing" textLength="193.4639" x="27" y="193.3701">void heapificarHaciaAbajo()</text><g data-visibility-modifier="PRIVATE_METHOD"><rect fill="#F24D5C" height="6" style="stroke:#C82930;stroke-width:1;" width="6" x="15" y="203.3203"/></g><text fill="#FFFFFF" font-family="sans-serif" font-size="14" lengthAdjust="spacing" textLength="161.6289" x="27" y="209.667">void swap(i : int, j : int)</text><text fill="#FFFFFF" font-family="sans-serif" font-size="14" lengthAdjust="spacing" textLength="4.4502" x="27" y="225.9639">&#160;</text><line style="stroke:#E7E7E7;stroke-width:1;" x1="8" x2="62.605" y1="155.9297" y2="155.9297"/><text fill="#FFFFFF" font-family="sans-serif" font-size="14" lengthAdjust="spacing" textLength="217.6357" x="62.605" y="160.2764">Operaciones privadas del heap</text><line style="stroke:#E7E7E7;stroke-width:1;" x1="280.2407" x2="334.8457" y1="155.9297" y2="155.9297"/><g data-visibility-modifier="PUBLIC_METHOD"><ellipse cx="18" cy="259.2109" fill="#84BE84" rx="3" ry="3" style="stroke:#038048;stroke-width:1;"/></g><text fill="#FFFFFF" font-family="sans-serif" font-size="14" lengthAdjust="spacing" textLength="153.7471" x="27" y="262.5576">void agregar(dato : T)</text><g data-visibility-modifier="PUBLIC_METHOD"><ellipse cx="18" cy="275.5078" fill="#84BE84" rx="3" ry="3" style="stroke:#038048;stroke-width:1;"/></g><text fill="#FFFFFF" font-family="sans-serif" font-size="14" lengthAdjust="spacing" textLength="81.0537" x="27" y="278.8545">T eliminar()</text><g data-visibility-modifier="PUBLIC_METHOD"><ellipse cx="18" cy="291.8047" fill="#84BE84" rx="3" ry="3" style="stroke:#038048;stroke-width:1;"/></g><text fill="#FFFFFF" font-family="sans-serif" font-size="14" lengthAdjust="spacing" textLength="88.3477" x="27" y="295.1514">T siguiente()</text><g data-visibility-modifier="PUBLIC_METHOD"><ellipse cx="18" cy="308.1016" fill="#84BE84" rx="3" ry="3" style="stroke:#038048;stroke-width:1;"/></g><text fill="#FFFFFF" font-family="sans-serif" font-size="14" lengthAdjust="spacing" textLength="91.2393" x="27" y="311.4482">int tamanio()</text><g data-visibility-modifier="PUBLIC_METHOD"><ellipse cx="18" cy="324.3984" fill="#84BE84" rx="3" ry="3" style="stroke:#038048;stroke-width:1;"/></g><text fill="#FFFFFF" font-family="sans-serif" font-size="14" lengthAdjust="spacing" textLength="108.3633" x="27" y="327.7451">boolean vacio()</text><line style="stroke:#E7E7E7;stroke-width:1;" x1="8" x2="96.3062" y1="241.4141" y2="241.4141"/><text fill="#FFFFFF" font-family="sans-serif" font-size="14" lengthAdjust="spacing" textLength="150.2334" x="96.3062" y="245.7607">Operaciones p&#250;blicas</text><line style="stroke:#E7E7E7;stroke-width:1;" x1="246.5396" x2="334.8457" y1="241.4141" y2="241.4141"/></g><!--link ColaPrioridad to Vector--><g class="link" data-entity-1="ColaPrioridad" data-entity-2="Vector" data-source-line="27" data-uid="lnk5" id="link_ColaPrioridad_Vector"><path codeLine="27" d="M130.56,335.43 C122.97,365.53 117.427,387.4721 112.757,405.9921" fill="none" id="ColaPrioridad-to-Vector" style="stroke:#E7E7E7;stroke-width:1;"/><polygon fill="#E7E7E7" points="111.29,411.81,117.3691,404.0612,112.5125,406.9618,109.612,402.1051,111.29,411.81" style="stroke:#E7E7E7;stroke-width:1;"/><text fill="#FFFFFF" font-family="sans-serif" font-size="13" lengthAdjust="spacing" textLength="22.9785" x="122.42" y="378.1169">usa</text></g><!--link ColaPrioridad to Comparador--><g class="link" data-entity-1="ColaPrioridad" data-entity-2="Comparador" data-source-line="28" data-uid="lnk6" id="link_ColaPrioridad_Comparador"><path codeLine="28" d="M212.9,335.43 C220.61,365.53 226.2294,387.4781 230.9794,405.9981" fill="none" id="ColaPrioridad-to-Comparador" style="stroke:#E7E7E7;stroke-width:1;"/><polygon fill="#E7E7E7" points="232.47,411.81,234.1086,402.0984,231.2278,406.9668,226.3595,404.0859,232.47,411.81" style="stroke:#E7E7E7;stroke-width:1;"/><text fill="#FFFFFF" font-family="sans-serif" font-size="13" lengthAdjust="spacing" textLength="57.2939" x="224.42" y="378.1169">compara</text></g><!--link ColaPrioridad to ColaPrioridad--><g class="link" data-entity-1="ColaPrioridad" data-entity-2="ColaPrioridad" data-source-line="29" data-uid="lnk7" id="link_ColaPrioridad_ColaPrioridad"><path codeLine="29" d="M336.1,139.6 C357.04,145.35 370.85,156.33 370.85,172.53 C370.85,188.72 362.8251,198.1087 341.8851,203.8687" fill="none" id="ColaPrioridad-to-ColaPrioridad" style="stroke:#E7E7E7;stroke-width:1;"/><polygon fill="#E7E7E7" points="336.1,205.46,345.8386,206.9298,340.9209,204.1339,343.7168,199.2163,336.1,205.46" style="stroke:#E7E7E7;stroke-width:1;"/><text fill="#FFFFFF" font-family="sans-serif" font-size="13" lengthAdjust="spacing" textLength="34.9312" x="376.85" y="177.0969">copia</text></g><!--SRC=[VLBBReCm4Bpp5NiBAEK7K1kfuj9RgWhrlk0jtSZOo2QqKjKVwxK_rkKLi9JK5ypCxknenpju60_a6ZrveC-Ed44FPuzAFXCRLS9wUAMgisx-oMtJeaCbGBGBL8JI-EpOEbQeGec0kYyEy1M1d7JM1eMTzJEqJe1gCsmWzw5GlFAGRVgI6yLRUrd89jE0D8LZImuhjaRMqZhkntqeql1Es4h1xBAth4Q8txX2zoGj-EWSbnWd_vMKUB9XXV_0DcOnnAQxWzDqkU7dzwVKekKN7_j90cj7DRfuMAFq5yi22Y3D3HkXLiXpVMOo7LqmcGSTDcZONh3IMaree1zc2_gzYVk5zE9eJZcCFaqFIx3PyAAkqFaskJd6gsLXPfLj6Vy0]--></g></svg>