<svg xmlns="http://www.w3.org/2000/svg" xmlns:xlink="http://www.w3.org/1999/xlink" contentStyleType="text/css" data-diagram-type="CLASS" height="577px" preserveAspectRatio="none" style="width:510px;height:577px;background:#1B1B1B;" version="1.1" viewBox="0 0 510 577" width="510px" zoomAndPan="magnify"><defs/><g><rect fill="#1B1B1B" height="577" style="stroke:none;stroke-width:1;" width="510" x="0" y="0"/><!--class VectorEstatico--><g class="entity" data-entity="VectorEstatico" data-source-line="2" data-uid="ent0002" id="entity_VectorEstatico"><rect fill="#313139" height="48" rx="2.5" ry="2.5" style="stroke:#E7E7E7;stroke-width:0.5;" width="133.5479" x="7" y="522.13"/><ellipse cx="22" cy="538.13" fill="#2E5233" rx="11" ry="11" style="stroke:#E7E7E7;stroke-width:1;"/><path d="M24.9688,543.7706 Q24.3906,544.0675 23.75,544.2081 Q23.1094,544.3644 22.4063,544.3644 Q19.9063,544.3644 18.5781,542.7238 Q17.2656,541.0675 17.2656,537.9425 Q17.2656,534.8175 18.5781,533.1613 Q19.9063,531.505 22.4063,531.505 Q23.1094,531.505 23.75,531.6613 Q24.4063,531.8175 24.9688,532.1144 L24.9688,534.8331 Q24.3438,534.255 23.75,533.9894 Q23.1563,533.7081 22.5313,533.7081 Q21.1875,533.7081 20.5,534.7863 Q19.8125,535.8488 19.8125,537.9425 Q19.8125,540.0363 20.5,541.1144 Q21.1875,542.1769 22.5313,542.1769 Q23.1563,542.1769 23.75,541.9113 Q24.3438,541.63 24.9688,541.0519 L24.9688,543.7706 Z " fill="#FFFFFF"/><text fill="#FFFFFF" font-family="sans-serif" font-size="14" lengthAdjust="spacing" textLength="101.5479" x="36" y="542.9767">VectorEstatico</text><line style="stroke:#E7E7E7;stroke-width:0.5;" x1="8" x2="139.5479" y1="554.13" y2="554.13"/><line style="stroke:#E7E7E7;stroke-width:0.5;" x1="8" x2="139.5479" y1="562.13" y2="562.13"/></g><!--class Lista--><g class="entity" data-entity="Lista" data-source-line="3" data-uid="ent0003" id="entity_Lista"><rect fill="#313139" height="48" rx="2.5" ry="2.5" style="stroke:#E7E7E7;stroke-width:0.5;" width="65.0518" x="175.25" y="522.13"/><ellipse cx="190.25" cy="538.13" fill="#2E5233" rx="11" ry="11" style="stroke:#E7E7E7;stroke-width:1;"/><path d="M193.2188,543.7706 Q192.6406,544.0675 192,544.2081 Q191.3594,544.3644 190.6563,544.3644 Q188.1563,544.3644 186.8281,542.7238 Q185.5156,541.0675 185.5156,537.9425 Q185.5156,534.8175 186.8281,533.1613 Q188.1563,531.505 190.6563,531.505 Q191.3594,531.505 192,531.6613 Q192.6563,531.8175 193.2188,532.1144 L193.2188,534.8331 Q192.5938,534.255 192,533.9894 Q191.4063,533.7081 190.7813,533.7081 Q189.4375,533.7081 188.75,534.7863 Q188.0625,535.8488 188.0625,537.9425 Q188.0625,540.0363 188.75,541.1144 Q189.4375,542.1769 190.7813,542.1769 Q191.4063,542.1769 192,541.9113 Q192.5938,541.63 193.2188,541.0519 L193.2188,543.7706 Z " fill="#FFFFFF"/><text fill="#FFFFFF" font-family="sans-serif" font-size="14" lengthAdjust="spacing" textLength="33.0518" x="204.25" y="542.9767">Lista</text><line style="stroke:#E7E7E7;stroke-width:0.5;" x1="176.25" x2="239.3018" y1="554.13" y2="554.13"/><line style="stroke:#E7E7E7;stroke-width:0.5;" x1="176.25" x2="239.3018" y1="562.13" y2="562.13"/></g><!--class Tupla--><g class="entity" data-entity="Tupla" data-source-line="4" data-uid="ent0004" id="entity_Tupla"><rect fill="#313139" height="48" rx="2.5" ry="2.5" style="stroke:#E7E7E7;stroke-width:0.5;" width="70.7803" x="275.38" y="522.13"/><ellipse cx="290.38" cy="538.13" fill="#2E5233" rx="11" ry="11" style="stroke:#E7E7E7;stroke-width:1;"/><path d="M293.3488,543.7706 Q292.7706,544.0675 292.13,544.2081 Q291.4894,544.3644 290.7863,544.3644 Q288.2863,544.3644 286.9581,542.7238 Q285.6456,541.0675 285.6456,537.9425 Q285.6456,534.8175 286.9581,533.1613 Q288.2863,531.505 290.7863,531.505 Q291.4894,531.505 292.13,531.6613 Q292.7863,531.8175 293.3488,532.1144 L293.3488,534.8331 Q292.7238,534.255 292.13,533.9894 Q291.5363,533.7081 290.9113,533.7081 Q289.5675,533.7081 288.88,534.7863 Q288.1925,535.8488 288.1925,537.9425 Q288.1925,540.0363 288.88,541.1144 Q289.5675,542.1769 290.9113,542.1769 Q291.5363,542.1769 292.13,541.9113 Q292.7238,541.63 293.3488,541.0519 L293.3488,543.7706 Z " fill="#FFFFFF"/><text fill="#FFFFFF" font-family="sans-serif" font-size="14" lengthAdjust="spacing" textLength="38.7803" x="304.38" y="542.9767">Tupla</text><line style="stroke:#E7E7E7;stroke-width:0.5;" x1="276.38" x2="345.1603" y1="554.13" y2="554.13"/><line style="stroke:#E7E7E7;stroke-width:0.5;" x1="276.38" x2="345.1603" y1="562.13" y2="562.13"/></g><!--class Iterador--><g class="entity" data-entity="Iterador" data-source-line="5" data-uid="ent0005" id="entity_Iterador"><rect fill="#313139" height="48" rx="2.5" ry="2.5" style="stroke:#E7E7E7;stroke-width:0.5;" width="87.7744" x="415.89" y="522.13"/><ellipse cx="430.89" cy="538.13" fill="#2E5233" rx="11" ry="11" style="stroke:#E7E7E7;stroke-width:1;"/><path d="M433.8588,543.7706 Q433.2806,544.0675 432.64,544.2081 Q431.9994,544.3644 431.2963,544.3644 Q428.7963,544.3644 427.4681,542.7238 Q426.1556,541.0675 426.1556,537.9425 Q426.1556,534.8175 427.4681,533.1613 Q428.7963,531.505 431.2963,531.505 Q431.9994,531.505 432.64,531.6613 Q433.2963,531.8175 433.8588,532.1144 L433.8588,534.8331 Q433.2338,534.255 432.64,533.9894 Q432.0463,533.7081 431.4213,533.7081 Q430.0775,533.7081 429.39,534.7863 Q428.7025,535.8488 428.7025,537.9425 Q428.7025,540.0363 429.39,541.1144 Q430.0775,542.1769 431.4213,542.1769 Q432.0463,542.1769 432.64,541.9113 Q433.2338,541.63 433.8588,541.0519 L433.8588,543.7706 Z " fill="#FFFFFF"/><text fill="#FFFFFF" font-family="sans-serif" font-size="14" lengthAdjust="spacing" textLength="55.7744" x="444.89" y="542.9767">Iterador</text><line style="stroke:#E7E7E7;stroke-width:0.5;" x1="416.89" x2="502.6644" y1="554.13" y2="554.13"/><line style="stroke:#E7E7E7;stroke-width:0.5;" x1="416.89" x2="502.6644" y1="562.13" y2="562.13"/></g><!--class Diccionario--><g class="entity" data-entity="Diccionario" data-source-line="8" data-uid="ent0006" id="entity_Diccionario"><rect fill="#313139" height="435.125" rx="2.5" ry="2.5" style="stroke:#E7E7E7;stroke-width:0.5;" width="376.8066" x="68.37" y="10"/><ellipse cx="201.2308" cy="26" fill="#2E5233" rx="11" ry="11" style="stroke:#E7E7E7;stroke-width:1;"/><path d="M204.1996,31.6406 Q203.6215,31.9375 202.9808,32.0781 Q202.3402,32.2344 201.6371,32.2344 Q199.1371,32.2344 197.809,30.5938 Q196.4965,28.9375 196.4965,25.8125 Q196.4965,22.6875 197.809,21.0313 Q199.1371,19.375 201.6371,19.375 Q202.3402,19.375 202.9808,19.5313 Q203.6371,19.6875 204.1996,19.9844 L204.1996,22.7031 Q203.5746,22.125 202.9808,21.8594 Q202.3871,21.5781 201.7621,21.5781 Q200.4183,21.5781 199.7308,22.6563 Q199.0433,23.7188 199.0433,25.8125 Q199.0433,27.9063 199.7308,28.9844 Q200.4183,30.0469 201.7621,30.0469 Q202.3871,30.0469 202.9808,29.7813 Q203.5746,29.5 204.1996,28.9219 L204.1996,31.6406 Z " fill="#FFFFFF"/><text fill="#FFFFFF" font-family="sans-serif" font-size="14" lengthAdjust="spacing" textLength="78.1826" x="221.7308" y="30.8467">Diccionario</text><rect fill="#FFFFFF" height="15.9688" style="stroke:#E7E7E7;stroke-width:1;stroke-dasharray:2,2;" width="22.4023" x="425.7743" y="7"/><text fill="#000000" font-family="sans-serif" font-size="12" font-style="italic" lengthAdjust="spacing" textLength="20.4023" x="426.7743" y="19.1387">C,V</text><line style="stroke:#E7E7E7;stroke-width:0.5;" x1="69.37" x2="444.1766" y1="42" y2="42"/><g data-visibility-modifier="PRIVATE_FIELD"><rect fill="none" height="6" style="stroke:#C82930;stroke-width:1;" width="6" x="76.37" y="52.6484"/></g><text fill="#FFFFFF" font-family="sans-serif" font-size="14" lengthAdjust="spacing" textLength="144.8125" x="88.37" y="58.9951">VectorEstatico datos</text><g data-visibility-modifier="PRIVATE_FIELD"><rect fill="none" height="6" style="stroke:#C82930;stroke-width:1;" width="6" x="76.37" y="68.9453"/></g><text fill="#FFFFFF" font-family="sans-serif" font-size="14" lengthAdjust="spacing" textLength="154.1504" x="88.37" y="75.292">double factorDeCarga</text><g data-visibility-modifier="PRIVATE_FIELD"><rect fill="none" height="6" style="stroke:#C82930;stroke-width:1;" width="6" x="76.37" y="85.2422"/></g><text fill="#FFFFFF" font-family="sans-serif" font-size="14" lengthAdjust="spacing" textLength="222.6123" x="88.37" y="91.5889">static double FACTOR_DEFAULT</text><g data-visibility-modifier="PRIVATE_FIELD"><rect fill="none" height="6" style="stroke:#C82930;stroke-width:1;" width="6" x="76.37" y="101.5391"/></g><text fill="#FFFFFF" font-family="sans-serif" font-size="14" lengthAdjust="spacing" textLength="118.8018" x="88.37" y="107.8857">int tamanioTabla</text><g data-visibility-modifier="PRIVATE_FIELD"><rect fill="none" height="6" style="stroke:#C82930;stroke-width:1;" width="6" x="76.37" y="117.8359"/></g><text fill="#FFFFFF" font-family="sans-serif" font-size="14" lengthAdjust="spacing" textLength="124.291" x="88.37" y="124.1826">int cantidadDatos</text><text fill="#FFFFFF" font-family="sans-serif" font-size="14" lengthAdjust="spacing" textLength="4.4502" x="88.37" y="140.4795">&#160;</text><g data-visibility-modifier="PUBLIC_METHOD"><ellipse cx="79.37" cy="153.4297" fill="#84BE84" rx="3" ry="3" style="stroke:#038048;stroke-width:1;"/></g><text fill="#FFFFFF" font-family="sans-serif" font-size="14" lengthAdjust="spacing" textLength="350.8066" x="88.37" y="156.7764">Diccionario(tamanio : int, factorDeCarga : double)</text><g data-visibility-modifier="PUBLIC_METHOD"><ellipse cx="79.37" cy="169.7266" fill="#84BE84" rx="3" ry="3" style="stroke:#038048;stroke-width:1;"/></g><text fill="#FFFFFF" font-family="sans-serif" font-size="14" lengthAdjust="spacing" textLength="178.5889" x="88.37" y="173.0732">Diccionario(tamanio : int)</text><g data-visibility-modifier="PUBLIC_METHOD"><ellipse cx="79.37" cy="186.0234" fill="#84BE84" rx="3" ry="3" style="stroke:#038048;stroke-width:1;"/></g><text fill="#FFFFFF" font-family="sans-serif" font-size="14" lengthAdjust="spacing" textLength="257.1953" x="88.37" y="189.3701">Diccionario(diccionario : Diccionario)</text><text fill="#FFFFFF" font-family="sans-serif" font-size="14" lengthAdjust="spacing" textLength="4.4502" x="88.37" y="205.667">&#160;</text><g data-visibility-modifier="PUBLIC_METHOD"><ellipse cx="79.37" cy="218.6172" fill="#84BE84" rx="3" ry="3" style="stroke:#038048;stroke-width:1;"/></g><text fill="#FFFFFF" font-family="sans-serif" font-size="14" lengthAdjust="spacing" textLength="207.6348" x="88.37" y="221.9639">V agregar(clave : C, valor : V)</text><g data-visibility-modifier="PUBLIC_METHOD"><ellipse cx="79.37" cy="234.9141" fill="#84BE84" rx="3" ry="3" style="stroke:#038048;stroke-width:1;"/></g><text fill="#FFFFFF" font-family="sans-serif" font-size="14" lengthAdjust="spacing" textLength="142.5361" x="88.37" y="238.2607">V eliminar(clave : C)</text><g data-visibility-modifier="PUBLIC_METHOD"><ellipse cx="79.37" cy="251.2109" fill="#84BE84" rx="3" ry="3" style="stroke:#038048;stroke-width:1;"/></g><text fill="#FFFFFF" font-family="sans-serif" font-size="14" lengthAdjust="spacing" textLength="176.5723" x="88.37" y="254.5576">V obtenerValor(clave : C)</text><g data-visibility-modifier="PUBLIC_METHOD"><ellipse cx="79.37" cy="267.5078" fill="#84BE84" rx="3" ry="3" style="stroke:#038048;stroke-width:1;"/></g><text fill="#FFFFFF" font-family="sans-serif" font-size="14" lengthAdjust="spacing" textLength="91.2393" x="88.37" y="270.8545">int tamanio()</text><g data-visibility-modifier="PUBLIC_METHOD"><ellipse cx="79.37" cy="283.8047" fill="#84BE84" rx="3" ry="3" style="stroke:#038048;stroke-width:1;"/></g><text fill="#FFFFFF" font-family="sans-serif" font-size="14" lengthAdjust="spacing" textLength="108.3633" x="88.37" y="287.1514">boolean vacio()</text><g data-visibility-modifier="PUBLIC_METHOD"><ellipse cx="79.37" cy="300.1016" fill="#84BE84" rx="3" ry="3" style="stroke:#038048;stroke-width:1;"/></g><text fill="#FFFFFF" font-family="sans-serif" font-size="14" lengthAdjust="spacing" textLength="132.4463" x="88.37" y="303.4482">Lista&lt;V&gt; valores()</text><text fill="#FFFFFF" font-family="sans-serif" font-size="14" lengthAdjust="spacing" textLength="4.4502" x="88.37" y="319.7451">&#160;</text><g data-visibility-modifier="PRIVATE_METHOD"><rect fill="#F24D5C" height="6" style="stroke:#C82930;stroke-width:1;" width="6" x="76.37" y="349.9922"/></g><text fill="#FFFFFF" font-family="sans-serif" font-size="14" lengthAdjust="spacing" textLength="150.6504" x="88.37" y="356.3389">int hashear(clave : C)</text><g data-visibility-modifier="PRIVATE_METHOD"><rect fill="#F24D5C" height="6" style="stroke:#C82930;stroke-width:1;" width="6" x="76.37" y="366.2891"/></g><text fill="#FFFFFF" font-family="sans-serif" font-size="14" lengthAdjust="spacing" textLength="190.9688" x="88.37" y="372.6357">int obtenerIndice(clave : C)</text><g data-visibility-modifier="PRIVATE_METHOD"><rect fill="#F24D5C" height="6" style="stroke:#C82930;stroke-width:1;" width="6" x="76.37" y="382.5859"/></g><text fill="#FFFFFF" font-family="sans-serif" font-size="14" lengthAdjust="spacing" textLength="277.2314" x="88.37" y="388.9326">int calcularTamanioTabla(tamanio : int)</text><g data-visibility-modifier="PRIVATE_METHOD"><rect fill="#F24D5C" height="6" style="stroke:#C82930;stroke-width:1;" width="6" x="76.37" y="398.8828"/></g><text fill="#FFFFFF" font-family="sans-serif" font-size="14" lengthAdjust="spacing" textLength="168.2871" x="88.37" y="405.2295">boolean esPrimo(n : int)</text><g data-visibility-modifier="PRIVATE_METHOD"><rect fill="#F24D5C" height="6" style="stroke:#C82930;stroke-width:1;" width="6" x="76.37" y="415.1797"/></g><text fill="#FFFFFF" font-family="sans-serif" font-size="14" lengthAdjust="spacing" textLength="179.0811" x="88.37" y="421.5264">int siguientePrimo(n : int)</text><g data-visibility-modifier="PRIVATE_METHOD"><rect fill="#F24D5C" height="6" style="stroke:#C82930;stroke-width:1;" width="6" x="76.37" y="431.4766"/></g><text fill="#FFFFFF" font-family="sans-serif" font-size="14" lengthAdjust="spacing" textLength="178.6914" x="88.37" y="437.8232">Iterador buscar(clave : C)</text><line style="stroke:#E7E7E7;stroke-width:1;" x1="69.37" x2="194.7304" y1="335.1953" y2="335.1953"/><text fill="#FFFFFF" font-family="sans-serif" font-size="14" lengthAdjust="spacing" textLength="124.0859" x="194.7304" y="339.542">M&#233;todos privados</text><line style="stroke:#E7E7E7;stroke-width:1;" x1="318.8163" x2="444.1766" y1="335.1953" y2="335.1953"/></g><!--link Diccionario to VectorEstatico--><g class="link" data-entity-1="Diccionario" data-entity-2="VectorEstatico" data-source-line="36" data-uid="lnk7" id="link_Diccionario_VectorEstatico"><path codeLine="36" d="M131.43,445.4 C113.65,476.16 100.8532,498.2857 90.3132,516.5157" fill="none" id="Diccionario-to-VectorEstatico" style="stroke:#E7E7E7;stroke-width:1;"/><polygon fill="#E7E7E7" points="87.31,521.71,95.2777,515.9207,89.8127,517.3814,88.3519,511.9164,87.31,521.71" style="stroke:#E7E7E7;stroke-width:1;"/><text fill="#FFFFFF" font-family="sans-serif" font-size="13" lengthAdjust="spacing" textLength="22.9785" x="114.77" y="488.1969">usa</text></g><!--link Diccionario to Lista--><g class="link" data-entity-1="Diccionario" data-entity-2="Lista" data-source-line="37" data-uid="lnk8" id="link_Diccionario_Lista"><path codeLine="37" d="M213.45,445.42 C212.07,455.44 210.84,465.38 209.77,475.13 C208.09,490.6 207.6252,502.1001 207.5452,515.7301" fill="none" id="Diccionario-to-Lista" style="stroke:#E7E7E7;stroke-width:1;"/><polygon fill="#E7E7E7" points="207.51,521.73,211.5628,512.7536,207.5393,516.7301,203.5629,512.7067,207.51,521.73" style="stroke:#E7E7E7;stroke-width:1;"/><text fill="#FFFFFF" font-family="sans-serif" font-size="13" lengthAdjust="spacing" textLength="51.4731" x="210.77" y="488.1969">cubetas</text></g><!--link Diccionario to Tupla--><g class="link" data-entity-1="Diccionario" data-entity-2="Tupla" data-source-line="38" data-uid="lnk9" id="link_Diccionario_Tupla"><path codeLine="38" d="M293.76,445.4 C299.01,476.16 302.661,497.5655 305.771,515.7955" fill="none" id="Diccionario-to-Tupla" style="stroke:#E7E7E7;stroke-width:1;"/><polygon fill="#E7E7E7" points="306.78,521.71,309.2095,512.1655,305.9392,516.7812,301.3235,513.5108,306.78,521.71" style="stroke:#E7E7E7;stroke-width:1;"/><text fill="#FFFFFF" font-family="sans-serif" font-size="13" lengthAdjust="spacing" textLength="112.144" x="302.77" y="488.1969">pares clave-valor</text></g><!--link Diccionario to Iterador--><g class="link" data-entity-1="Diccionario" data-entity-2="Iterador" data-source-line="39" data-uid="lnk10" id="link_Diccionario_Iterador"><path codeLine="39" d="M402.38,445.44 C408.66,455.43 414.82,465.36 420.77,475.13 C430.12,490.45 437.0901,502.8355 444.5401,516.5755" fill="none" id="Diccionario-to-Iterador" style="stroke:#E7E7E7;stroke-width:1;"/><polygon fill="#E7E7E7" points="447.4,521.85,446.6265,512.0316,445.0167,517.4545,439.5937,515.8448,447.4,521.85" style="stroke:#E7E7E7;stroke-width:1;"/><text fill="#FFFFFF" font-family="sans-serif" font-size="13" lengthAdjust="spacing" textLength="47.1313" x="429.77" y="488.1969">recorre</text></g><!--SRC=[XLDHQiCm3FtlAVJNbDKNA5sXf2qKEZPAbj-XE5fhSErYEsKmTg2TOnURuoQTqmJcdoXwpzRZIHh3OpYGIhHaWJuS6OKMAekb_rpH4VUeXPouqsPj7Jh1TPFS2V_Vn5brbcsyzGzXgSreDExKW9NWN6Y5HkZkyn4mJwVv0Zv7u0-xgmibEcqRgDHL8GdUiMQiA4Lpm0Qwqbl6Pfbcp_ktrNgpVDrb3KKe1mvFg8JEi90OfJag9qeiLw5O01vYXKbp3sOrVTfLu9FNifF_BWuHoiYWMOnCMXqvuC7G0KtYdRkGPwLJkA3KneVvvCOYAKv2nRG_J1UE59cyljN78sUIDbTeBGcLByIZREZ_t7Shr2URD2ePWwUVRwTBRU5in0NhWB78uYFQ8_N5NS56tbPvDsYOmb7oIgB9eWuEkSjkoic-677IYUh2zMDM72f1oj4WenrcA2hBkvA_eW7VawozKNHRd7ZO6LlSZ_AithCUALZgCLuLvD3syB1c7Z-Zznk25XRSxp5lkcTWY6jZw1S0]--></g></svg>