<svg xmlns="http://www.w3.org/2000/svg" xmlns:xlink="http://www.w3.org/1999/xlink" contentStyleType="text/css" data-diagram-type="CLASS" height="788px" preserveAspectRatio="none" style="width:1324px;height:788px;background:#1B1B1B;" version="1.1" viewBox="0 0 1324 788" width="1324px" zoomAndPan="magnify"><defs/><g><rect fill="#1B1B1B" height="788" style="stroke:none;stroke-width:1;" width="1324" x="0" y="0"/><!--class Comparador--><g class="entity" data-entity="Comparador" data-source-line="2" data-uid="ent0002" id="entity_Comparador"><rect fill="#313139" height="48" rx="2.5" ry="2.5" style="stroke:#E7E7E7;stroke-width:0.5;" width="118.9873" x="7" y="668.79"/><ellipse cx="22" cy="684.79" fill="#2E5233" rx="11" ry="11" style="stroke:#E7E7E7;stroke-width:1;"/><path d="M24.9688,690.4306 Q24.3906,690.7275 23.75,690.8681 Q23.1094,691.0244 22.4063,691.0244 Q19.9063,691.0244 18.5781,689.3838 Q17.2656,687.7275 17.2656,684.6025 Q17.2656,681.4775 18.5781,679.8213 Q19.9063,678.165 22.4063,678.165 Q23.1094,678.165 23.75,678.3213 Q24.4063,678.4775 24.9688,678.7744 L24.9688,681.4931 Q24.3438,680.915 23.75,680.6494 Q23.1563,680.3681 22.5313,680.3681 Q21.1875,680.3681 20.5,681.4463 Q19.8125,682.5088 19.8125,684.6025 Q19.8125,686.6963 20.5,687.7744 Q21.1875,688.8369 22.5313,688.8369 Q23.1563,688.8369 23.75,688.5713 Q24.3438,688.29 24.9688,687.7119 L24.9688,690.4306 Z " fill="#FFFFFF"/><text fill="#FFFFFF" font-family="sans-serif" font-size="14" lengthAdjust="spacing" textLength="86.9873" x="36" y="689.6367">Comparador</text><line style="stroke:#E7E7E7;stroke-width:0.5;" x1="8" x2="124.9873" y1="700.79" y2="700.79"/><line style="stroke:#E7E7E7;stroke-width:0.5;" x1="8" x2="124.9873" y1="708.79" y2="708.79"/></g><!--class Lista--><g class="entity" data-entity="Lista" data-source-line="3" data-uid="ent0003" id="entity_Lista"><rect fill="#313139" height="48" rx="2.5" ry="2.5" style="stroke:#E7E7E7;stroke-width:0.5;" width="65.0518" x="160.97" y="668.79"/><ellipse cx="175.97" cy="684.79" fill="#2E5233" rx="11" ry="11" style="stroke:#E7E7E7;stroke-width:1;"/><path d="M178.9388,690.4306 Q178.3606,690.7275 177.72,690.8681 Q177.0794,691.0244 176.3763,691.0244 Q173.8763,691.0244 172.5481,689.3838 Q171.2356,687.7275 171.2356,684.6025 Q171.2356,681.4775 172.5481,679.8213 Q173.8763,678.165 176.3763,678.165 Q177.0794,678.165 177.72,678.3213 Q178.3763,678.4775 178.9388,678.7744 L178.9388,681.4931 Q178.3138,680.915 177.72,680.6494 Q177.1263,680.3681 176.5013,680.3681 Q175.1575,680.3681 174.47,681.4463 Q173.7825,682.5088 173.7825,684.6025 Q173.7825,686.6963 174.47,687.7744 Q175.1575,688.8369 176.5013,688.8369 Q177.1263,688.8369 177.72,688.5713 Q178.3138,688.29 178.9388,687.7119 L178.9388,690.4306 Z " fill="#FFFFFF"/><text fill="#FFFFFF" font-family="sans-serif" font-size="14" lengthAdjust="spacing" textLength="33.0518" x="189.97" y="689.6367">Lista</text><line style="stroke:#E7E7E7;stroke-width:0.5;" x1="161.97" x2="225.0218" y1="700.79" y2="700.79"/><line style="stroke:#E7E7E7;stroke-width:0.5;" x1="161.97" x2="225.0218" y1="708.79" y2="708.79"/></g><!--class Tupla--><g class="entity" data-entity="Tupla" data-source-line="4" data-uid="ent0004" id="entity_Tupla"><rect fill="#313139" height="48" rx="2.5" ry="2.5" style="stroke:#E7E7E7;stroke-width:0.5;" width="70.7803" x="285.1" y="668.79"/><ellipse cx="300.1" cy="684.79" fill="#2E5233" rx="11" ry="11" style="stroke:#E7E7E7;stroke-width:1;"/><path d="M303.0688,690.4306 Q302.4906,690.7275 301.85,690.8681 Q301.2094,691.0244 300.5063,691.0244 Q298.0063,691.0244 296.6781,689.3838 Q295.3656,687.7275 295.3656,684.6025 Q295.3656,681.4775 296.6781,679.8213 Q298.0063,678.165 300.5063,678.165 Q301.2094,678.165 301.85,678.3213 Q302.5063,678.4775 303.0688,678.7744 L303.0688,681.4931 Q302.4438,680.915 301.85,680.6494 Q301.2563,680.3681 300.6313,680.3681 Q299.2875,680.3681 298.6,681.4463 Q297.9125,682.5088 297.9125,684.6025 Q297.9125,686.6963 298.6,687.7744 Q299.2875,688.8369 300.6313,688.8369 Q301.2563,688.8369 301.85,688.5713 Q302.4438,688.29 303.0688,687.7119 L303.0688,690.4306 Z " fill="#FFFFFF"/><text fill="#FFFFFF" font-family="sans-serif" font-size="14" lengthAdjust="spacing" textLength="38.7803" x="314.1" y="689.6367">Tupla</text><line style="stroke:#E7E7E7;stroke-width:0.5;" x1="286.1" x2="354.8803" y1="700.79" y2="700.79"/><line style="stroke:#E7E7E7;stroke-width:0.5;" x1="286.1" x2="354.8803" y1="708.79" y2="708.79"/></g><!--class Cola--><g class="entity" data-entity="Cola" data-source-line="5" data-uid="ent0005" id="entity_Cola"><rect fill="#313139" height="48" rx="2.5" ry="2.5" style="stroke:#E7E7E7;stroke-width:0.5;" width="62.8096" x="435.09" y="668.79"/><ellipse cx="450.09" cy="684.79" fill="#2E5233" rx="11" ry="11" style="stroke:#E7E7E7;stroke-width:1;"/><path d="M453.0588,690.4306 Q452.4806,690.7275 451.84,690.8681 Q451.1994,691.0244 450.4963,691.0244 Q447.9963,691.0244 446.6681,689.3838 Q445.3556,687.7275 445.3556,684.6025 Q445.3556,681.4775 446.6681,679.8213 Q447.9963,678.165 450.4963,678.165 Q451.1994,678.165 451.84,678.3213 Q452.4963,678.4775 453.0588,678.7744 L453.0588,681.4931 Q452.4338,680.915 451.84,680.6494 Q451.2463,680.3681 450.6213,680.3681 Q449.2775,680.3681 448.59,681.4463 Q447.9025,682.5088 447.9025,684.6025 Q447.9025,686.6963 448.59,687.7744 Q449.2775,688.8369 450.6213,688.8369 Q451.2463,688.8369 451.84,688.5713 Q452.4338,688.29 453.0588,687.7119 L453.0588,690.4306 Z " fill="#FFFFFF"/><text fill="#FFFFFF" font-family="sans-serif" font-size="14" lengthAdjust="spacing" textLength="30.8096" x="464.09" y="689.6367">Cola</text><line style="stroke:#E7E7E7;stroke-width:0.5;" x1="436.09" x2="496.8996" y1="700.79" y2="700.79"/><line style="stroke:#E7E7E7;stroke-width:0.5;" x1="436.09" x2="496.8996" y1="708.79" y2="708.79"/></g><!--class Nodo--><g class="entity" data-entity="Nodo" data-source-line="8" data-uid="ent0006" id="entity_Nodo"><rect fill="#313139" height="178.375" rx="2.5" ry="2.5" style="stroke:#E7E7E7;stroke-width:0.5;" width="514.7354" x="533.13" y="603.6"/><ellipse cx="755.8014" cy="619.6" fill="#2E5233" rx="11" ry="11" style="stroke:#E7E7E7;stroke-width:1;"/><path d="M758.7701,625.2406 Q758.192,625.5375 757.5514,625.6781 Q756.9108,625.8344 756.2076,625.8344 Q753.7076,625.8344 752.3795,624.1938 Q751.067,622.5375 751.067,619.4125 Q751.067,616.2875 752.3795,614.6313 Q753.7076,612.975 756.2076,612.975 Q756.9108,612.975 757.5514,613.1313 Q758.2076,613.2875 758.7701,613.5844 L758.7701,616.3031 Q758.1451,615.725 757.5514,615.4594 Q756.9576,615.1781 756.3326,615.1781 Q754.9889,615.1781 754.3014,616.2563 Q753.6139,617.3188 753.6139,619.4125 Q753.6139,621.5063 754.3014,622.5844 Q754.9889,623.6469 756.3326,623.6469 Q756.9576,623.6469 757.5514,623.3813 Q758.1451,623.1 758.7701,622.5219 L758.7701,625.2406 Z " fill="#FFFFFF"/><text fill="#FFFFFF" font-family="sans-serif" font-size="14" lengthAdjust="spacing" textLength="36.4902" x="776.3014" y="624.4467">Nodo</text><rect fill="#FFFFFF" height="15.9688" style="stroke:#E7E7E7;stroke-width:1;stroke-dasharray:2,2;" width="22.4023" x="1028.463" y="600.6"/><text fill="#000000" font-family="sans-serif" font-size="12" font-style="italic" lengthAdjust="spacing" textLength="20.4023" x="1029.463" y="612.7387">C,V</text><line style="stroke:#E7E7E7;stroke-width:0.5;" x1="534.13" x2="1046.8654" y1="635.6" y2="635.6"/><text fill="#FFFFFF" font-family="sans-serif" font-size="14" lengthAdjust="spacing" textLength="51.29" x="539.13" y="652.5951">C clave</text><text fill="#FFFFFF" font-family="sans-serif" font-size="14" lengthAdjust="spacing" textLength="49.1025" x="539.13" y="668.892">V valor</text><text fill="#FFFFFF" font-family="sans-serif" font-size="14" lengthAdjust="spacing" textLength="81.6621" x="539.13" y="685.1889">Nodo padre</text><text fill="#FFFFFF" font-family="sans-serif" font-size="14" lengthAdjust="spacing" textLength="131.1064" x="539.13" y="701.4857">Nodo hijoIzquierdo</text><text fill="#FFFFFF" font-family="sans-serif" font-size="14" lengthAdjust="spacing" textLength="125.0566" x="539.13" y="717.7826">Nodo hijoDerecho</text><line style="stroke:#E7E7E7;stroke-width:0.5;" x1="534.13" x2="1046.8654" y1="725.0844" y2="725.0844"/><g data-visibility-modifier="PUBLIC_METHOD"><ellipse cx="544.13" cy="738.7328" fill="#84BE84" rx="3" ry="3" style="stroke:#038048;stroke-width:1;"/></g><text fill="#FFFFFF" font-family="sans-serif" font-size="14" lengthAdjust="spacing" textLength="488.7354" x="553.13" y="742.0795">Nodo(clave : C, valor : V, padre : Nodo, hijoIzq : Nodo, hijoDer : Nodo)</text><g data-visibility-modifier="PUBLIC_METHOD"><ellipse cx="544.13" cy="755.0297" fill="#84BE84" rx="3" ry="3" style="stroke:#038048;stroke-width:1;"/></g><text fill="#FFFFFF" font-family="sans-serif" font-size="14" lengthAdjust="spacing" textLength="274.7705" x="553.13" y="758.3764">Nodo(clave : C, valor : V, padre : Nodo)</text><g data-visibility-modifier="PUBLIC_METHOD"><ellipse cx="544.13" cy="771.3266" fill="#84BE84" rx="3" ry="3" style="stroke:#038048;stroke-width:1;"/></g><text fill="#FFFFFF" font-family="sans-serif" font-size="14" lengthAdjust="spacing" textLength="175.041" x="553.13" y="774.6732">Nodo(clave : C, valor : V)</text></g><!--class DiccionarioOrdenado--><g class="entity" data-entity="DiccionarioOrdenado" data-source-line="21" data-uid="ent0007" id="entity_DiccionarioOrdenado"><rect fill="#313139" height="516.6094" rx="2.5" ry="2.5" style="stroke:#E7E7E7;stroke-width:0.5;" width="421.5547" x="109.72" y="10"/><ellipse cx="230.365" cy="26" fill="#2E5233" rx="11" ry="11" style="stroke:#E7E7E7;stroke-width:1;"/><path d="M233.3338,31.6406 Q232.7556,31.9375 232.115,32.0781 Q231.4744,32.2344 230.7713,32.2344 Q228.2713,32.2344 226.9431,30.5938 Q225.6306,28.9375 225.6306,25.8125 Q225.6306,22.6875 226.9431,21.0313 Q228.2713,19.375 230.7713,19.375 Q231.4744,19.375 232.115,19.5313 Q232.7713,19.6875 233.3338,19.9844 L233.3338,22.7031 Q232.7088,22.125 232.115,21.8594 Q231.5213,21.5781 230.8963,21.5781 Q229.5525,21.5781 228.865,22.6563 Q228.1775,23.7188 228.1775,25.8125 Q228.1775,27.9063 228.865,28.9844 Q229.5525,30.0469 230.8963,30.0469 Q231.5213,30.0469 232.115,29.7813 Q232.7088,29.5 233.3338,28.9219 L233.3338,31.6406 Z " fill="#FFFFFF"/><text fill="#FFFFFF" font-family="sans-serif" font-size="14" lengthAdjust="spacing" textLength="147.3623" x="250.865" y="30.8467">DiccionarioOrdenado</text><rect fill="#FFFFFF" height="15.9688" style="stroke:#E7E7E7;stroke-width:1;stroke-dasharray:2,2;" width="22.4023" x="511.8723" y="7"/><text fill="#000000" font-family="sans-serif" font-size="12" font-style="italic" lengthAdjust="spacing" textLength="20.4023" x="512.8723" y="19.1387">C,V</text><line style="stroke:#E7E7E7;stroke-width:0.5;" x1="110.72" x2="530.2747" y1="42" y2="42"/><g data-visibility-modifier="PRIVATE_FIELD"><rect fill="none" height="6" style="stroke:#C82930;stroke-width:1;" width="6" x="117.72" y="52.6484"/></g><text fill="#FFFFFF" font-family="sans-serif" font-size="14" lengthAdjust="spacing" textLength="66.5137" x="129.72" y="58.9951">Nodo raiz</text><g data-visibility-modifier="PRIVATE_FIELD"><rect fill="none" height="6" style="stroke:#C82930;stroke-width:1;" width="6" x="117.72" y="68.9453"/></g><text fill="#FFFFFF" font-family="sans-serif" font-size="14" lengthAdjust="spacing" textLength="176.3467" x="129.72" y="75.292">Comparador comparador</text><g data-visibility-modifier="PRIVATE_FIELD"><rect fill="none" height="6" style="stroke:#C82930;stroke-width:1;" width="6" x="117.72" y="85.2422"/></g><text fill="#FFFFFF" font-family="sans-serif" font-size="14" lengthAdjust="spacing" textLength="124.291" x="129.72" y="91.5889">int cantidadDatos</text><text fill="#FFFFFF" font-family="sans-serif" font-size="14" lengthAdjust="spacing" textLength="4.4502" x="129.72" y="107.8857">&#160;</text><g data-visibility-modifier="PUBLIC_METHOD"><ellipse cx="120.72" cy="120.8359" fill="#84BE84" rx="3" ry="3" style="stroke:#038048;stroke-width:1;"/></g><text fill="#FFFFFF" font-family="sans-serif" font-size="14" lengthAdjust="spacing" textLength="343.7998" x="129.72" y="124.1826">DiccionarioOrdenado(comparador : Comparador)</text><g data-visibility-modifier="PUBLIC_METHOD"><ellipse cx="120.72" cy="137.1328" fill="#84BE84" rx="3" ry="3" style="stroke:#038048;stroke-width:1;"/></g><text fill="#FFFFFF" font-family="sans-serif" font-size="14" lengthAdjust="spacing" textLength="395.5547" x="129.72" y="140.4795">DiccionarioOrdenado(diccionario : DiccionarioOrdenado)</text><text fill="#FFFFFF" font-family="sans-serif" font-size="14" lengthAdjust="spacing" textLength="4.4502" x="129.72" y="156.7764">&#160;</text><g data-visibility-modifier="PUBLIC_METHOD"><ellipse cx="120.72" cy="169.7266" fill="#84BE84" rx="3" ry="3" style="stroke:#038048;stroke-width:1;"/></g><text fill="#FFFFFF" font-family="sans-serif" font-size="14" lengthAdjust="spacing" textLength="207.6348" x="129.72" y="173.0732">V agregar(clave : C, valor : V)</text><g data-visibility-modifier="PUBLIC_METHOD"><ellipse cx="120.72" cy="186.0234" fill="#84BE84" rx="3" ry="3" style="stroke:#038048;stroke-width:1;"/></g><text fill="#FFFFFF" font-family="sans-serif" font-size="14" lengthAdjust="spacing" textLength="142.5361" x="129.72" y="189.3701">V eliminar(clave : C)</text><g data-visibility-modifier="PUBLIC_METHOD"><ellipse cx="120.72" cy="202.3203" fill="#84BE84" rx="3" ry="3" style="stroke:#038048;stroke-width:1;"/></g><text fill="#FFFFFF" font-family="sans-serif" font-size="14" lengthAdjust="spacing" textLength="176.5723" x="129.72" y="205.667">V obtenerValor(clave : C)</text><text fill="#FFFFFF" font-family="sans-serif" font-size="14" lengthAdjust="spacing" textLength="4.4502" x="129.72" y="221.9639">&#160;</text><g data-visibility-modifier="PUBLIC_METHOD"><ellipse cx="120.72" cy="234.9141" fill="#84BE84" rx="3" ry="3" style="stroke:#038048;stroke-width:1;"/></g><text fill="#FFFFFF" font-family="sans-serif" font-size="14" lengthAdjust="spacing" textLength="98.7656" x="129.72" y="238.2607">Lista inorder()</text><g data-visibility-modifier="PUBLIC_METHOD"><ellipse cx="120.72" cy="251.2109" fill="#84BE84" rx="3" ry="3" style="stroke:#038048;stroke-width:1;"/></g><text fill="#FFFFFF" font-family="sans-serif" font-size="14" lengthAdjust="spacing" textLength="109.2588" x="129.72" y="254.5576">Lista preorder()</text><g data-visibility-modifier="PUBLIC_METHOD"><ellipse cx="120.72" cy="267.5078" fill="#84BE84" rx="3" ry="3" style="stroke:#038048;stroke-width:1;"/></g><text fill="#FFFFFF" font-family="sans-serif" font-size="14" lengthAdjust="spacing" textLength="116.2383" x="129.72" y="270.8545">Lista postorder()</text><g data-visibility-modifier="PUBLIC_METHOD"><ellipse cx="120.72" cy="283.8047" fill="#84BE84" rx="3" ry="3" style="stroke:#038048;stroke-width:1;"/></g><text fill="#FFFFFF" font-family="sans-serif" font-size="14" lengthAdjust="spacing" textLength="91.0137" x="129.72" y="287.1514">Lista ancho()</text><text fill="#FFFFFF" font-family="sans-serif" font-size="14" lengthAdjust="spacing" textLength="4.4502" x="129.72" y="303.4482">&#160;</text><g data-visibility-modifier="PUBLIC_METHOD"><ellipse cx="120.72" cy="316.3984" fill="#84BE84" rx="3" ry="3" style="stroke:#038048;stroke-width:1;"/></g><text fill="#FFFFFF" font-family="sans-serif" font-size="14" lengthAdjust="spacing" textLength="91.2393" x="129.72" y="319.7451">int tamanio()</text><g data-visibility-modifier="PUBLIC_METHOD"><ellipse cx="120.72" cy="332.6953" fill="#84BE84" rx="3" ry="3" style="stroke:#038048;stroke-width:1;"/></g><text fill="#FFFFFF" font-family="sans-serif" font-size="14" lengthAdjust="spacing" textLength="108.3633" x="129.72" y="336.042">boolean vacio()</text><text fill="#FFFFFF" font-family="sans-serif" font-size="14" lengthAdjust="spacing" textLength="4.4502" x="129.72" y="352.3389">&#160;</text><g data-visibility-modifier="PRIVATE_METHOD"><rect fill="#F24D5C" height="6" style="stroke:#C82930;stroke-width:1;" width="6" x="117.72" y="382.5859"/></g><text fill="#FFFFFF" font-family="sans-serif" font-size="14" lengthAdjust="spacing" textLength="318.0078" x="129.72" y="388.9326">Nodo obtenerSucesorInmediato(nodo : Nodo)</text><g data-visibility-modifier="PRIVATE_METHOD"><rect fill="#F24D5C" height="6" style="stroke:#C82930;stroke-width:1;" width="6" x="117.72" y="398.8828"/></g><text fill="#FFFFFF" font-family="sans-serif" font-size="14" lengthAdjust="spacing" textLength="325.5342" x="129.72" y="405.2295">void inorderRecorrer(nodo : Nodo, lista : Lista)</text><g data-visibility-modifier="PRIVATE_METHOD"><rect fill="#F24D5C" height="6" style="stroke:#C82930;stroke-width:1;" width="6" x="117.72" y="415.1797"/></g><text fill="#FFFFFF" font-family="sans-serif" font-size="14" lengthAdjust="spacing" textLength="336.0273" x="129.72" y="421.5264">void preorderRecorrer(nodo : Nodo, lista : Lista)</text><g data-visibility-modifier="PRIVATE_METHOD"><rect fill="#F24D5C" height="6" style="stroke:#C82930;stroke-width:1;" width="6" x="117.72" y="431.4766"/></g><text fill="#FFFFFF" font-family="sans-serif" font-size="14" lengthAdjust="spacing" textLength="343.0068" x="129.72" y="437.8232">void postorderRecorrer(nodo : Nodo, lista : Lista)</text><g data-visibility-modifier="PRIVATE_METHOD"><rect fill="#F24D5C" height="6" style="stroke:#C82930;stroke-width:1;" width="6" x="117.72" y="447.7734"/></g><text fill="#FFFFFF" font-family="sans-serif" font-size="14" lengthAdjust="spacing" textLength="243.5439" x="129.72" y="454.1201">Nodo clonarSubArbol(nodo : Nodo)</text><g data-visibility-modifier="PRIVATE_METHOD"><rect fill="#F24D5C" height="6" style="stroke:#C82930;stroke-width:1;" width="6" x="117.72" y="464.0703"/></g><text fill="#FFFFFF" font-family="sans-serif" font-size="14" lengthAdjust="spacing" textLength="211.4766" x="129.72" y="470.417">int cmp(clave1 : C, clave2 : C)</text><g data-visibility-modifier="PRIVATE_METHOD"><rect fill="#F24D5C" height="6" style="stroke:#C82930;stroke-width:1;" width="6" x="117.72" y="480.3672"/></g><text fill="#FFFFFF" font-family="sans-serif" font-size="14" lengthAdjust="spacing" textLength="280.4785" x="129.72" y="486.7139">Nodo buscarNodo(clave : C, raiz : Nodo)</text><g data-visibility-modifier="PRIVATE_METHOD"><rect fill="#F24D5C" height="6" style="stroke:#C82930;stroke-width:1;" width="6" x="117.72" y="496.6641"/></g><text fill="#FFFFFF" font-family="sans-serif" font-size="14" lengthAdjust="spacing" textLength="183.4287" x="129.72" y="503.0107">int cantHijos(nodo : Nodo)</text><g data-visibility-modifier="PRIVATE_METHOD"><rect fill="#F24D5C" height="6" style="stroke:#C82930;stroke-width:1;" width="6" x="117.72" y="512.9609"/></g><text fill="#FFFFFF" font-family="sans-serif" font-size="14" lengthAdjust="spacing" textLength="382.7236" x="129.72" y="519.3076">void borrarNodoConUnHijo(nodo : Nodo, padre : Nodo)</text><line style="stroke:#E7E7E7;stroke-width:1;" x1="110.72" x2="258.4544" y1="367.7891" y2="367.7891"/><text fill="#FFFFFF" font-family="sans-serif" font-size="14" lengthAdjust="spacing" textLength="124.0859" x="258.4544" y="372.1357">M&#233;todos privados</text><line style="stroke:#E7E7E7;stroke-width:1;" x1="382.5403" x2="530.2747" y1="367.7891" y2="367.7891"/></g><!--reverse link DiccionarioOrdenado to Nodo--><g class="link" data-entity-1="DiccionarioOrdenado" data-entity-2="Nodo" data-source-line="56" data-uid="lnk8" id="link_DiccionarioOrdenado_Nodo"><path codeLine="56" d="M540.355,466.9415 C596.365,517.2815 645.29,561.26 692.07,603.32" fill="none" id="DiccionarioOrdenado-backto-Nodo" style="stroke:#E7E7E7;stroke-width:1;"/><polygon fill="#E7E7E7" points="531.43,458.92,533.2187,465.9057,540.355,466.9415,538.5663,459.9558,531.43,458.92" style="stroke:#E7E7E7;stroke-width:1;"/><text fill="#FFFFFF" font-family="sans-serif" font-size="13" lengthAdjust="spacing" textLength="23.7466" x="652.49" y="569.6669">raiz</text></g><!--link Nodo to Nodo--><g class="link" data-entity-1="Nodo" data-entity-2="Nodo" data-source-line="59" data-uid="lnk9" id="link_Nodo_Nodo"><path codeLine="59" d="M1048.05,686.62 C1069.51,687.95 1082.86,690.01 1082.86,692.79 C1082.86,695.58 1075.4985,697.2589 1054.0385,698.5889" fill="none" id="Nodo-to-Nodo" style="stroke:#E7E7E7;stroke-width:1;"/><polygon fill="#E7E7E7" points="1048.05,698.96,1057.2802,702.3956,1053.0404,698.6507,1056.7853,694.4109,1048.05,698.96" style="stroke:#E7E7E7;stroke-width:1;"/><text fill="#FFFFFF" font-family="sans-serif" font-size="13" lengthAdjust="spacing" textLength="83.7256" x="1088.86" y="697.3569">hijoIzquierdo</text></g><!--link Nodo to Nodo--><g class="link" data-entity-1="Nodo" data-entity-2="Nodo" data-source-line="60" data-uid="lnk10" id="link_Nodo_Nodo"><path codeLine="60" d="M1048.09,676.97 C1120.73,677.88 1177.86,683.15 1177.86,692.79 C1177.86,702.44 1126.7295,707.6357 1054.0895,708.5357" fill="none" id="Nodo-to-Nodo-1" style="stroke:#E7E7E7;stroke-width:1;"/><polygon fill="#E7E7E7" points="1048.09,708.61,1057.1389,712.4982,1053.0896,708.5481,1057.0398,704.4988,1048.09,708.61" style="stroke:#E7E7E7;stroke-width:1;"/><text fill="#FFFFFF" font-family="sans-serif" font-size="13" lengthAdjust="spacing" textLength="78.1079" x="1183.86" y="697.3569">hijoDerecho</text></g><!--link Nodo to Nodo--><g class="link" data-entity-1="Nodo" data-entity-2="Nodo" data-source-line="61" data-uid="lnk11" id="link_Nodo_Nodo"><path codeLine="61" d="M1048.24,669.02 C1163.3,667.58 1267.86,675.51 1267.86,692.79 C1267.86,710.08 1169.2995,718.0746 1054.2395,716.6446" fill="none" id="Nodo-to-Nodo-2" style="stroke:#E7E7E7;stroke-width:1;"/><polygon fill="#E7E7E7" points="1048.24,716.57,1057.1896,720.6815,1053.2396,716.6321,1057.289,712.6822,1048.24,716.57" style="stroke:#E7E7E7;stroke-width:1;"/><text fill="#FFFFFF" font-family="sans-serif" font-size="13" lengthAdjust="spacing" textLength="37.813" x="1273.86" y="697.3569">padre</text></g><!--link DiccionarioOrdenado to Comparador--><g class="link" data-entity-1="DiccionarioOrdenado" data-entity-2="Comparador" data-source-line="63" data-uid="lnk12" id="link_DiccionarioOrdenado_Comparador"><path codeLine="63" d="M165.61,526.93 C130.33,585.6 101.1716,634.1078 83.5616,663.3978" fill="none" id="DiccionarioOrdenado-to-Comparador" style="stroke:#E7E7E7;stroke-width:1;"/><polygon fill="#E7E7E7" points="80.47,668.54,88.5355,662.8878,83.0464,664.2549,81.6793,658.7657,80.47,668.54" style="stroke:#E7E7E7;stroke-width:1;"/><text fill="#FFFFFF" font-family="sans-serif" font-size="13" lengthAdjust="spacing" textLength="22.9785" x="143.49" y="569.6669">usa</text></g><!--link DiccionarioOrdenado to Lista--><g class="link" data-entity-1="DiccionarioOrdenado" data-entity-2="Lista" data-source-line="64" data-uid="lnk13" id="link_DiccionarioOrdenado_Lista"><path codeLine="64" d="M231.02,526.89 C228.05,536.9 225.2,546.83 222.49,556.6 C211.74,595.47 203.7015,635.6501 198.6915,662.7301" fill="none" id="DiccionarioOrdenado-to-Lista" style="stroke:#E7E7E7;stroke-width:1;"/><polygon fill="#E7E7E7" points="197.6,668.63,203.1705,660.5079,198.5096,663.7134,195.304,659.0525,197.6,668.63" style="stroke:#E7E7E7;stroke-width:1;"/><text fill="#FFFFFF" font-family="sans-serif" font-size="13" lengthAdjust="spacing" textLength="85.9092" x="223.49" y="569.6669">retorna listas</text></g><!--link DiccionarioOrdenado to Tupla--><g class="link" data-entity-1="DiccionarioOrdenado" data-entity-2="Tupla" data-source-line="65" data-uid="lnk14" id="link_DiccionarioOrdenado_Tupla"><path codeLine="65" d="M317.14,527.05 C317.19,542.8 317.3,558.42 317.49,573.6 C317.91,606.65 318.8038,638.8729 319.5438,662.7029" fill="none" id="DiccionarioOrdenado-to-Tupla" style="stroke:#E7E7E7;stroke-width:1;"/><polygon fill="#E7E7E7" points="319.73,668.7,323.4487,659.5802,319.5748,663.7024,315.4526,659.8285,319.73,668.7" style="stroke:#E7E7E7;stroke-width:1;"/><text fill="#FFFFFF" font-family="sans-serif" font-size="13" lengthAdjust="spacing" textLength="104.7109" x="318.49" y="569.6669">elementos (C,V)</text></g><!--link DiccionarioOrdenado to Cola--><g class="link" data-entity-1="DiccionarioOrdenado" data-entity-2="Cola" data-source-line="66" data-uid="lnk15" id="link_DiccionarioOrdenado_Cola"><path codeLine="66" d="M417.53,527.01 C420.95,536.98 424.28,546.87 427.49,556.6 C440.35,595.58 451.5747,635.8251 458.8347,662.8751" fill="none" id="DiccionarioOrdenado-to-Cola" style="stroke:#E7E7E7;stroke-width:1;"/><polygon fill="#E7E7E7" points="460.39,668.67,461.9203,658.9408,459.0939,663.8409,454.1938,661.0145,460.39,668.67" style="stroke:#E7E7E7;stroke-width:1;"/><text fill="#FFFFFF" font-family="sans-serif" font-size="13" lengthAdjust="spacing" textLength="122.9985" x="433.49" y="569.6669">recorrido en ancho</text></g><!--SRC=[bLNDZjCm4BxdAUQs2JG7E5Qm4agHM6a1QHTwdpZ3hf5Z5pkfK14Fn84JZz0NOspdjwIBsal7Czzyzlpc2bw77nGA7JcWxmrPZGvQXnN_HMiYsEgWCFKEBLR6TefRwHhiv4_jJk40P36vcd731rEPEP_Nl2fMssluaG3_2c3zdeAyXJqgliZBmNE7bQNn-2Y_cfl3jrQIhSnSlI5Buj4aGViywDD036ieLf6NnUqgShBe8QkUSdPchkwSNKRtNtYM_FmdHHifX3GQhJGVRKKQJpEs09WcC8z9i2WFtNai6OYnUj4cTGC2TIChh3RO6DTdRE6MTFJsSGo7x0cNQjInpm8Ywo_S0ZvOUa1x9bCzYfIifPx2Hfif6z9ajzvhQky0eLKvPCDtspIRQNUM5jN6DKjwrDnTwS3iqzXWZLgQ0LWQemWrno3a0CrpU7_yrN2575yfz-Y5F9zMhWlYlXNaZBtHDLMIAvDgRvmsLWvx8wi-dZiInbf-w0It0XLUkuwldhdr0L_irsVa0iSGbr2-ylTj-SQMHYs54vgntiNAlOWT4EINOvaxih9r0ktfOFccN-Ba1d_7W-pEvh3aI29TOVHdxS7piEPZFPtQErA-m9g6HScsjmgcdTz8hYYq6lc5nzy729Dad1Jo-4TdoTB8FykxIDTnb9cqu6qCuLMHpz8Ntd9QIDxH2AvrOLkv9BZb-NNlFr-JIzP-MvxQuhvTV9z75TDzm1-Biy3RhYaiSUjm5aAJkBFmy1bXE2cgIVDIWfGNNFR4ErHazmqfMKaw3kXV]--></g></svg>