<svg xmlns="http://www.w3.org/2000/svg" xmlns:xlink="http://www.w3.org/1999/xlink" contentStyleType="text/css" data-diagram-type="CLASS" height="866px" preserveAspectRatio="none" style="width:391px;height:866px;background:#1B1B1B;" version="1.1" viewBox="0 0 391 866" width="391px" zoomAndPan="magnify"><defs/><g><rect fill="#1B1B1B" height="866" style="stroke:none;stroke-width:1;" width="391" x="0" y="0"/><!--class Iterador--><g class="entity" data-entity="Iterador" data-source-line="2" data-uid="ent0002" id="entity_Iterador"><rect fill="#313139" height="178.375" rx="2.5" ry="2.5" style="stroke:#E7E7E7;stroke-width:0.5;" width="214.7676" x="7" y="425.34"/><ellipse cx="66.2402" cy="441.34" fill="#352866" rx="11" ry="11" style="stroke:#E7E7E7;stroke-width:1;"/><path d="M62.1621,437.1056 L62.1621,434.9494 L69.5527,434.9494 L69.5527,437.1056 L67.084,437.1056 L67.084,445.1838 L69.5527,445.1838 L69.5527,447.34 L62.1621,447.34 L62.1621,445.1838 L64.6309,445.1838 L64.6309,437.1056 L62.1621,437.1056 Z " fill="#FFFFFF"/><text fill="#FFFFFF" font-family="sans-serif" font-size="14" font-style="italic" lengthAdjust="spacing" textLength="87.7871" x="86.7402" y="446.1867">Iterador~T~</text><line style="stroke:#E7E7E7;stroke-width:0.5;" x1="8" x2="220.7676" y1="457.34" y2="457.34"/><line style="stroke:#E7E7E7;stroke-width:0.5;" x1="8" x2="220.7676" y1="465.34" y2="465.34"/><g data-visibility-modifier="PUBLIC_METHOD"><ellipse cx="18" cy="478.9884" fill="#84BE84" rx="3" ry="3" style="stroke:#038048;stroke-width:1;"/></g><text fill="#FFFFFF" font-family="sans-serif" font-size="14" lengthAdjust="spacing" textLength="55.4463" x="27" y="482.3351">T dato()</text><g data-visibility-modifier="PUBLIC_METHOD"><ellipse cx="18" cy="495.2853" fill="#84BE84" rx="3" ry="3" style="stroke:#038048;stroke-width:1;"/></g><text fill="#FFFFFF" font-family="sans-serif" font-size="14" lengthAdjust="spacing" textLength="163.0986" x="27" y="498.632">boolean haySiguiente()</text><g data-visibility-modifier="PUBLIC_METHOD"><ellipse cx="18" cy="511.5822" fill="#84BE84" rx="3" ry="3" style="stroke:#038048;stroke-width:1;"/></g><text fill="#FFFFFF" font-family="sans-serif" font-size="14" lengthAdjust="spacing" textLength="109.4229" x="27" y="514.9289">void siguiente()</text><g data-visibility-modifier="PUBLIC_METHOD"><ellipse cx="18" cy="527.8791" fill="#84BE84" rx="3" ry="3" style="stroke:#038048;stroke-width:1;"/></g><text fill="#FFFFFF" font-family="sans-serif" font-size="14" lengthAdjust="spacing" textLength="153.6035" x="27" y="531.2257">boolean hayAnterior()</text><g data-visibility-modifier="PUBLIC_METHOD"><ellipse cx="18" cy="544.1759" fill="#84BE84" rx="3" ry="3" style="stroke:#038048;stroke-width:1;"/></g><text fill="#FFFFFF" font-family="sans-serif" font-size="14" lengthAdjust="spacing" textLength="100.5225" x="27" y="547.5226">void anterior()</text><g data-visibility-modifier="PUBLIC_METHOD"><ellipse cx="18" cy="560.4728" fill="#84BE84" rx="3" ry="3" style="stroke:#038048;stroke-width:1;"/></g><text fill="#FFFFFF" font-family="sans-serif" font-size="14" lengthAdjust="spacing" textLength="144.5801" x="27" y="563.8195">void agregar(T dato)</text><g data-visibility-modifier="PUBLIC_METHOD"><ellipse cx="18" cy="576.7697" fill="#84BE84" rx="3" ry="3" style="stroke:#038048;stroke-width:1;"/></g><text fill="#FFFFFF" font-family="sans-serif" font-size="14" lengthAdjust="spacing" textLength="188.7676" x="27" y="580.1164">void modificarDato(T dato)</text><g data-visibility-modifier="PUBLIC_METHOD"><ellipse cx="18" cy="593.0666" fill="#84BE84" rx="3" ry="3" style="stroke:#038048;stroke-width:1;"/></g><text fill="#FFFFFF" font-family="sans-serif" font-size="14" lengthAdjust="spacing" textLength="81.0537" x="27" y="596.4132">T eliminar()</text></g><!--class Lista--><g class="entity" data-entity="Lista" data-source-line="14" data-uid="ent0003" id="entity_Lista"><rect fill="#313139" height="341.3438" rx="2.5" ry="2.5" style="stroke:#E7E7E7;stroke-width:0.5;" width="297.3867" x="54.69" y="7"/><ellipse cx="166.6011" cy="23" fill="#2E5233" rx="11" ry="11" style="stroke:#E7E7E7;stroke-width:1;"/><path d="M169.5699,28.6406 Q168.9918,28.9375 168.3511,29.0781 Q167.7105,29.2344 167.0074,29.2344 Q164.5074,29.2344 163.1793,27.5938 Q161.8668,25.9375 161.8668,22.8125 Q161.8668,19.6875 163.1793,18.0313 Q164.5074,16.375 167.0074,16.375 Q167.7105,16.375 168.3511,16.5313 Q169.0074,16.6875 169.5699,16.9844 L169.5699,19.7031 Q168.9449,19.125 168.3511,18.8594 Q167.7574,18.5781 167.1324,18.5781 Q165.7886,18.5781 165.1011,19.6563 Q164.4136,20.7188 164.4136,22.8125 Q164.4136,24.9063 165.1011,25.9844 Q165.7886,27.0469 167.1324,27.0469 Q167.7574,27.0469 168.3511,26.7813 Q168.9449,26.5 169.5699,25.9219 L169.5699,28.6406 Z " fill="#FFFFFF"/><text fill="#FFFFFF" font-family="sans-serif" font-size="14" lengthAdjust="spacing" textLength="65.0645" x="187.1011" y="27.8467">Lista~T~</text><line style="stroke:#E7E7E7;stroke-width:0.5;" x1="55.69" x2="351.0767" y1="39" y2="39"/><g data-visibility-modifier="PRIVATE_FIELD"><rect fill="none" height="6" style="stroke:#C82930;stroke-width:1;" width="6" x="62.69" y="49.6484"/></g><text fill="#FFFFFF" font-family="sans-serif" font-size="14" lengthAdjust="spacing" textLength="96.0449" x="74.69" y="55.9951">Nodo primero</text><g data-visibility-modifier="PRIVATE_FIELD"><rect fill="none" height="6" style="stroke:#C82930;stroke-width:1;" width="6" x="62.69" y="65.9453"/></g><text fill="#FFFFFF" font-family="sans-serif" font-size="14" lengthAdjust="spacing" textLength="85.2852" x="74.69" y="72.292">Nodo ultimo</text><g data-visibility-modifier="PRIVATE_FIELD"><rect fill="none" height="6" style="stroke:#C82930;stroke-width:1;" width="6" x="62.69" y="82.2422"/></g><text fill="#FFFFFF" font-family="sans-serif" font-size="14" lengthAdjust="spacing" textLength="124.291" x="74.69" y="88.5889">int cantidadDatos</text><line style="stroke:#E7E7E7;stroke-width:0.5;" x1="55.69" x2="351.0767" y1="95.8906" y2="95.8906"/><g data-visibility-modifier="PUBLIC_METHOD"><ellipse cx="65.69" cy="109.5391" fill="#84BE84" rx="3" ry="3" style="stroke:#038048;stroke-width:1;"/></g><text fill="#FFFFFF" font-family="sans-serif" font-size="14" lengthAdjust="spacing" textLength="43.9756" x="74.69" y="112.8857">Lista()</text><g data-visibility-modifier="PUBLIC_METHOD"><ellipse cx="65.69" cy="125.8359" fill="#84BE84" rx="3" ry="3" style="stroke:#038048;stroke-width:1;"/></g><text fill="#FFFFFF" font-family="sans-serif" font-size="14" lengthAdjust="spacing" textLength="119.7861" x="74.69" y="129.1826">Lista(lista : Lista)</text><text fill="#FFFFFF" font-family="sans-serif" font-size="14" lengthAdjust="spacing" textLength="4.4502" x="74.69" y="145.4795">&#160;</text><g data-visibility-modifier="PUBLIC_METHOD"><ellipse cx="65.69" cy="158.4297" fill="#84BE84" rx="3" ry="3" style="stroke:#038048;stroke-width:1;"/></g><text fill="#FFFFFF" font-family="sans-serif" font-size="14" lengthAdjust="spacing" textLength="144.5801" x="74.69" y="161.7764">void agregar(T dato)</text><g data-visibility-modifier="PUBLIC_METHOD"><ellipse cx="65.69" cy="174.7266" fill="#84BE84" rx="3" ry="3" style="stroke:#038048;stroke-width:1;"/></g><text fill="#FFFFFF" font-family="sans-serif" font-size="14" lengthAdjust="spacing" textLength="227.1992" x="74.69" y="178.0732">void agregar(T dato, indice : int)</text><g data-visibility-modifier="PUBLIC_METHOD"><ellipse cx="65.69" cy="191.0234" fill="#84BE84" rx="3" ry="3" style="stroke:#038048;stroke-width:1;"/></g><text fill="#FFFFFF" font-family="sans-serif" font-size="14" lengthAdjust="spacing" textLength="81.0537" x="74.69" y="194.3701">T eliminar()</text><g data-visibility-modifier="PUBLIC_METHOD"><ellipse cx="65.69" cy="207.3203" fill="#84BE84" rx="3" ry="3" style="stroke:#038048;stroke-width:1;"/></g><text fill="#FFFFFF" font-family="sans-serif" font-size="14" lengthAdjust="spacing" textLength="154.7725" x="74.69" y="210.667">T eliminar(indice : int)</text><g data-visibility-modifier="PUBLIC_METHOD"><ellipse cx="65.69" cy="223.6172" fill="#84BE84" rx="3" ry="3" style="stroke:#038048;stroke-width:1;"/></g><text fill="#FFFFFF" font-family="sans-serif" font-size="14" lengthAdjust="spacing" textLength="129.165" x="74.69" y="226.9639">T dato(indice : int)</text><g data-visibility-modifier="PUBLIC_METHOD"><ellipse cx="65.69" cy="239.9141" fill="#84BE84" rx="3" ry="3" style="stroke:#038048;stroke-width:1;"/></g><text fill="#FFFFFF" font-family="sans-serif" font-size="14" lengthAdjust="spacing" textLength="271.3867" x="74.69" y="243.2607">void modificarDato(T dato, indice : int)</text><g data-visibility-modifier="PUBLIC_METHOD"><ellipse cx="65.69" cy="256.2109" fill="#84BE84" rx="3" ry="3" style="stroke:#038048;stroke-width:1;"/></g><text fill="#FFFFFF" font-family="sans-serif" font-size="14" lengthAdjust="spacing" textLength="91.2393" x="74.69" y="259.5576">int tamanio()</text><g data-visibility-modifier="PUBLIC_METHOD"><ellipse cx="65.69" cy="272.5078" fill="#84BE84" rx="3" ry="3" style="stroke:#038048;stroke-width:1;"/></g><text fill="#FFFFFF" font-family="sans-serif" font-size="14" lengthAdjust="spacing" textLength="108.3633" x="74.69" y="275.8545">boolean vacio()</text><g data-visibility-modifier="PUBLIC_METHOD"><ellipse cx="65.69" cy="288.8047" fill="#84BE84" rx="3" ry="3" style="stroke:#038048;stroke-width:1;"/></g><text fill="#FFFFFF" font-family="sans-serif" font-size="14" lengthAdjust="spacing" textLength="126.6836" x="74.69" y="292.1514">Iterador iterador()</text><g data-visibility-modifier="PUBLIC_METHOD"><ellipse cx="65.69" cy="305.1016" fill="#84BE84" rx="3" ry="3" style="stroke:#038048;stroke-width:1;"/></g><text fill="#FFFFFF" font-family="sans-serif" font-size="14" lengthAdjust="spacing" textLength="200.4023" x="74.69" y="308.4482">Iterador iterador(indice : int)</text><g data-visibility-modifier="PUBLIC_METHOD"><ellipse cx="65.69" cy="321.3984" fill="#84BE84" rx="3" ry="3" style="stroke:#038048;stroke-width:1;"/></g><text fill="#FFFFFF" font-family="sans-serif" font-size="14" lengthAdjust="spacing" textLength="230.3027" x="74.69" y="324.7451">boolean indiceValido(indice : int)</text><g data-visibility-modifier="PUBLIC_METHOD"><ellipse cx="65.69" cy="337.6953" fill="#84BE84" rx="3" ry="3" style="stroke:#038048;stroke-width:1;"/></g><text fill="#FFFFFF" font-family="sans-serif" font-size="14" lengthAdjust="spacing" textLength="216.8701" x="74.69" y="341.042">Nodo obtenerNodo(indice : int)</text></g><!--class Nodo--><g class="entity" data-entity="Nodo" data-source-line="36" data-uid="ent0004" id="entity_Nodo"><rect fill="#313139" height="178.375" rx="2.5" ry="2.5" style="stroke:#E7E7E7;stroke-width:0.5;" width="365.0625" x="19.85" y="680.71"/><ellipse cx="163.8798" cy="696.71" fill="#2E5233" rx="11" ry="11" style="stroke:#E7E7E7;stroke-width:1;"/><path d="M166.8485,702.3506 Q166.2704,702.6475 165.6298,702.7881 Q164.9892,702.9444 164.286,702.9444 Q161.786,702.9444 160.4579,701.3038 Q159.1454,699.6475 159.1454,696.5225 Q159.1454,693.3975 160.4579,691.7413 Q161.786,690.085 164.286,690.085 Q164.9892,690.085 165.6298,690.2413 Q166.286,690.3975 166.8485,690.6944 L166.8485,693.4131 Q166.2235,692.835 165.6298,692.5694 Q165.036,692.2881 164.411,692.2881 Q163.0673,692.2881 162.3798,693.3663 Q161.6923,694.4288 161.6923,696.5225 Q161.6923,698.6163 162.3798,699.6944 Q163.0673,700.7569 164.411,700.7569 Q165.036,700.7569 165.6298,700.4913 Q166.2235,700.21 166.8485,699.6319 L166.8485,702.3506 Z " fill="#FFFFFF"/><text fill="#FFFFFF" font-family="sans-serif" font-size="14" lengthAdjust="spacing" textLength="68.5029" x="184.3798" y="701.5567">Nodo~T~</text><line style="stroke:#E7E7E7;stroke-width:0.5;" x1="20.85" x2="383.9125" y1="712.71" y2="712.71"/><g data-visibility-modifier="PACKAGE_PRIVATE_FIELD"><polygon fill="none" points="30.85,722.3584,26.85,728.3584,34.85,728.3584" style="stroke:#1963A0;stroke-width:1;"/></g><text fill="#FFFFFF" font-family="sans-serif" font-size="14" lengthAdjust="spacing" textLength="44.5225" x="39.85" y="729.7051">T dato</text><g data-visibility-modifier="PACKAGE_PRIVATE_FIELD"><polygon fill="none" points="30.85,738.6553,26.85,744.6553,34.85,744.6553" style="stroke:#1963A0;stroke-width:1;"/></g><text fill="#FFFFFF" font-family="sans-serif" font-size="14" lengthAdjust="spacing" textLength="96.4619" x="39.85" y="746.002">Nodo anterior</text><g data-visibility-modifier="PACKAGE_PRIVATE_FIELD"><polygon fill="none" points="30.85,754.9522,26.85,760.9522,34.85,760.9522" style="stroke:#1963A0;stroke-width:1;"/></g><text fill="#FFFFFF" font-family="sans-serif" font-size="14" lengthAdjust="spacing" textLength="105.3623" x="39.85" y="762.2989">Nodo siguiente</text><line style="stroke:#E7E7E7;stroke-width:0.5;" x1="20.85" x2="383.9125" y1="769.6006" y2="769.6006"/><g data-visibility-modifier="PUBLIC_METHOD"><ellipse cx="30.85" cy="783.2491" fill="#84BE84" rx="3" ry="3" style="stroke:#038048;stroke-width:1;"/></g><text fill="#FFFFFF" font-family="sans-serif" font-size="14" lengthAdjust="spacing" textLength="339.0625" x="39.85" y="786.5957">Nodo(dato : T, anterior : Nodo, siguiente : Nodo)</text><g data-visibility-modifier="PUBLIC_METHOD"><ellipse cx="30.85" cy="799.5459" fill="#84BE84" rx="3" ry="3" style="stroke:#038048;stroke-width:1;"/></g><text fill="#FFFFFF" font-family="sans-serif" font-size="14" lengthAdjust="spacing" textLength="101.1035" x="39.85" y="802.8926">Nodo(dato : T)</text><text fill="#FFFFFF" font-family="sans-serif" font-size="14" lengthAdjust="spacing" textLength="4.4502" x="39.85" y="819.1895">&#160;</text><g data-visibility-modifier="PUBLIC_METHOD"><ellipse cx="30.85" cy="832.1397" fill="#84BE84" rx="3" ry="3" style="stroke:#038048;stroke-width:1;"/></g><text fill="#FFFFFF" font-family="sans-serif" font-size="14" lengthAdjust="spacing" textLength="172.6758" x="39.85" y="835.4864">Nodo obtenerSiguiente()</text><g data-visibility-modifier="PUBLIC_METHOD"><ellipse cx="30.85" cy="848.4366" fill="#84BE84" rx="3" ry="3" style="stroke:#038048;stroke-width:1;"/></g><text fill="#FFFFFF" font-family="sans-serif" font-size="14" lengthAdjust="spacing" textLength="163.1807" x="39.85" y="851.7832">Nodo obtenerAnterior()</text></g><!--link Lista to Nodo--><g class="link" data-entity-1="Lista" data-entity-2="Nodo" data-source-line="49" data-uid="lnk5" id="link_Lista_Nodo"><path codeLine="49" d="M231.5,348.83 C234.77,374.41 237.58,400.52 239.38,425.34 C245.12,504.41 246.87,524.79 239.38,603.71 C237,628.88 233.3567,649.9163 227.8167,674.5463" fill="none" id="Lista-to-Nodo" style="stroke:#E7E7E7;stroke-width:1;"/><polygon fill="#E7E7E7" points="226.5,680.4,232.3775,672.4972,227.5972,675.5219,224.5725,670.7416,226.5,680.4" style="stroke:#E7E7E7;stroke-width:1;"/><text fill="#FFFFFF" font-family="sans-serif" font-size="13" lengthAdjust="spacing" textLength="22.9785" x="244.38" y="519.0969">usa</text></g><!--link Lista to Iterador--><g class="link" data-entity-1="Lista" data-entity-2="Iterador" data-source-line="50" data-uid="lnk6" id="link_Lista_Iterador"><path codeLine="50" d="M158.23,348.55 C151.22,374.94 145.7729,395.4518 139.4929,419.0518" fill="none" id="Lista-to-Iterador" style="stroke:#E7E7E7;stroke-width:1;stroke-dasharray:7,7;"/><polygon fill="#E7E7E7" points="137.95,424.85,144.1299,417.1813,139.2358,420.0181,136.3989,415.1241,137.95,424.85" style="stroke:#E7E7E7;stroke-width:1;"/><text fill="#FFFFFF" font-family="sans-serif" font-size="13" lengthAdjust="spacing" textLength="59.4839" x="148.38" y="391.4069">devuelve</text></g><!--link Iterador to Nodo--><g class="link" data-entity-1="Iterador" data-entity-2="Nodo" data-source-line="51" data-uid="lnk7" id="link_Iterador_Nodo"><path codeLine="51" d="M145.16,604.15 C153.74,628.83 161.0818,649.982 169.6518,674.662" fill="none" id="Iterador-to-Nodo" style="stroke:#E7E7E7;stroke-width:1;"/><polygon fill="#E7E7E7" points="171.62,680.33,172.4464,670.5159,169.9798,675.6067,164.8891,673.1401,171.62,680.33" style="stroke:#E7E7E7;stroke-width:1;"/><text fill="#FFFFFF" font-family="sans-serif" font-size="13" lengthAdjust="spacing" textLength="60.5503" x="161.38" y="646.7769">manipula</text></g><!--SRC=[ZLF1JiCm3BtdAwnTjefj7r29IGWkan07gBXxJHYMqcPAsae8iMydITCsfG7HK_nUdXtxkMkuzHySwqReDoo52GYZ0O7LqPwGAtqjhYj00qCCdmpiTmC5S6pK9WlXIIafi8Pt_7YXSql2fXh9JX47iu0ZpPshJ4hF9PX6prgSKM_w5yoeId5wenBrWtlR_481Gb95DRfqNuojXpdSIpHc6aBfGbWzacbmwDu7eVKTF2ckuAAf4bh5K2iRgWR4pX9Asm1nvEurXeLt-5nZHtqaVVwyZpBspsxdrDQMv6IzortjPDSBAAtmngQeNsUShkr6q625DIttfCCoGiVjed3uWqbL6hBst2jAukaEl4_gr8XQQ7V-SSckHR3VaOFxNjIRVmtZ2O5dXYsDiN7PMLHuuvIsLB4TDJPop7OI12HBwJAMQ6FvkyLiz6F5E_yif3EWdjQ-N_7Txj3BSsWD1d2_Fqm-vC15rmhP2JPYaSgvVMabVWC0]--></g></svg>